HIERARCHY
ROOT Hips
{
	OFFSET	0.000000	0.000000	0.000000
	CHANNELS 6 Xposition Yposition Zposition Zrotation Xrotation Yrotation
	JOINT LeftUpLeg
	{
		OFFSET	12.811937	-7.635976	0.557276
		CHANNELS 3 Zrotation Xrotation Yrotation
		JOINT LeftLeg
		{
			OFFSET	-0.429270	-42.206159	-1.204951
			CHANNELS 3 Zrotation Xrotation Yrotation
			JOINT LeftFoot
			{
				OFFSET	-2.112259	-42.464481	-3.973220
				CHANNELS 3 Zrotation Xrotation Yrotation
				JOINT LeftFootHeel
				{
					OFFSET	0.387196	-5.329707	-3.419729
					CHANNELS 3 Zrotation Xrotation Yrotation
					End Site
					{
						OFFSET	0.327567	-0.000003	16.505428
					}
				}
			}
		}
	}
	JOINT RightUpLeg
	{
		OFFSET	-12.811937	-7.635976	0.557276
		CHANNELS 3 Zrotation Xrotation Yrotation
		JOINT RightLeg
		{
			OFFSET	0.429270	-42.206159	-1.204951
			CHANNELS 3 Zrotation Xrotation Yrotation
			JOINT RightFoot
			{
				OFFSET	2.112259	-42.464481	-3.973220
				CHANNELS 3 Zrotation Xrotation Yrotation
				JOINT RightFootHeel
				{
					OFFSET	-0.387198	-5.329707	-3.419729
					CHANNELS 3 Zrotation Xrotation Yrotation
					End Site
					{
						OFFSET	-0.327566	-0.000003	16.505428
					}
				}
			}
		}
	}
	JOINT Spine
	{
		OFFSET	0.000000	13.731315	-1.007646
		CHANNELS 3 Zrotation Xrotation Yrotation
		JOINT Spine1
		{
			OFFSET	0.000000	12.091746	-0.604589
			CHANNELS 3 Zrotation Xrotation Yrotation
			JOINT LeftShoulder
			{
				OFFSET	5.746115	20.990027	-0.833816
				CHANNELS 3 Zrotation Xrotation Yrotation
				JOINT LeftArm
				{
					OFFSET	10.881538	-1.359258	0.219250
					CHANNELS 3 Zrotation Xrotation Yrotation
					JOINT LeftForeArm
					{
						OFFSET	4.390314	-31.537147	0.202818
						CHANNELS 3 Zrotation Xrotation Yrotation
						JOINT LeftHand
						{
							OFFSET	3.168650	-24.865023	5.373370
							CHANNELS 3 Zrotation Xrotation Yrotation
							End Site
							{
								OFFSET	1.457528	-10.806075	2.170267
							}
						}
					}
				}
			}
			JOINT RightShoulder
			{
				OFFSET	-5.746115	20.990027	-0.833816
				CHANNELS 3 Zrotation Xrotation Yrotation
				JOINT RightArm
				{
					OFFSET	-10.881538	-1.359258	0.219250
					CHANNELS 3 Zrotation Xrotation Yrotation
					JOINT RightForeArm
					{
						OFFSET	-4.390314	-31.537147	0.202818
						CHANNELS 3 Zrotation Xrotation Yrotation
						JOINT RightHand
						{
							OFFSET	-3.168650	-24.865023	5.373370
							CHANNELS 3 Zrotation Xrotation Yrotation
							End Site
							{
								OFFSET	-1.457528	-10.806075	2.170267
							}
						}
					}
				}
			}
			JOINT Neck
			{
				OFFSET	0.000000	27.075639	0.680489
				CHANNELS 3 Zrotation Xrotation Yrotation
				JOINT Head
				{
					OFFSET	0.000000	12.391287	1.239129
					CHANNELS 3 Zrotation Xrotation Yrotation
					End Site
					{
						OFFSET	0.000000	13.818691	-0.105853
					}
				}
			}
		}
	}
}
MOTION
Frames:    13
Frame Time: 0.016667
9.404047	96.070191	-1.136271	15.146893	0.229608	11.263079	-21.085878	2.999772	-9.083636	-2.201223	-3.055166	-8.126187	0.487267	2.366807	7.639165	0.	0.	0.	-8.820724	-16.930079	-29.943373	-0.325169	50.217602	-6.236530	-6.065555	16.224949	2.904679	0.	0.	0.	-0.000001	-0.000002	0.000001	-16.701529	2.894336	-5.415669	-1.747459	5.773952	1.767675	5.138416	-5.331740	-1.396612	-2.386182	1.813539	10.655669	7.016399	-1.612692	-21.182009	-1.605218	5.339982	3.427575	1.840713	-8.037316	4.954584	0.136979	3.649352	7.874040	-1.747198	1.925244	14.539364	2.230883	5.849307	-4.389054	6.093215	-2.848109	-4.509574	
9.404397	96.069968	-1.136615	15.149105	0.223384	11.263979	-21.086912	3.006198	-9.082130	-2.201616	-3.054968	-8.131949	0.482730	2.365133	7.648331	0.	0.	0.	-8.821644	-16.923477	-29.943266	-0.325169	50.217602	-6.236530	-6.065555	16.224949	2.904679	0.	0.	0.	0.000002	-0.000001	0.000000	-16.705086	2.887294	-5.415198	-1.743855	5.778764	1.775075	5.135062	-5.323178	-1.389607	-2.379865	1.800361	10.643282	7.016618	-1.614903	-21.187750	-1.600095	5.348763	3.435577	1.839014	-8.041326	4.949833	0.136084	3.655571	7.877218	-1.773302	1.937498	14.590223	2.239250	5.860194	-4.371331	6.084239	-2.850092	-4.521154	
9.410038	96.070685	-1.135802	15.151252	0.217341	11.264842	-21.087912	3.012429	-9.080659	-2.203724	-3.053912	-8.162437	0.437553	2.349111	7.712219	0.	0.	0.	-8.822536	-16.917078	-29.943146	-0.325169	50.217602	-6.236530	-6.065555	16.224949	2.904679	0.	0.	0.	0.000000	-0.000003	0.000002	-16.710375	2.870709	-5.415078	-1.732347	5.767305	1.801408	5.125698	-5.310263	-1.369748	-2.360695	1.771425	10.603281	7.019599	-1.634688	-21.210314	-1.583121	5.353250	3.463629	1.832531	-8.056410	4.931801	0.127762	3.684625	7.891426	-1.796711	1.952808	14.623487	2.237991	5.866016	-4.345947	6.081534	-2.845526	-4.517435	
9.413674	96.071324	-1.134968	15.151252	0.217341	11.264842	-21.087912	3.012429	-9.080659	-2.204968	-3.053288	-8.180348	0.409529	2.339163	7.750827	0.	0.	0.	-8.822536	-16.917078	-29.943146	-0.325169	50.217602	-6.236530	-6.065555	16.224949	2.904679	0.	0.	0.	0.000000	-0.000003	0.000002	-16.713438	2.854434	-5.415728	-1.726927	5.769137	1.813083	5.123201	-5.311875	-1.368971	-2.346843	1.770646	10.573877	7.013369	-1.645398	-21.199457	-1.575326	5.361742	3.476110	1.829526	-8.062130	4.923892	0.124648	3.698639	7.887741	-1.806664	1.956523	14.645349	2.234537	5.867430	-4.342144	6.083203	-2.836163	-4.505619	
9.416799	96.071770	-1.135061	15.151252	0.217341	11.264842	-21.087912	3.012429	-9.080659	-2.204968	-3.053288	-8.180348	0.387203	2.331628	7.767009	0.	0.	0.	-8.822755	-16.915825	-29.952627	-0.335665	50.216564	-6.221823	-6.065555	16.224949	2.904679	0.	0.	0.	0.000000	-0.000003	0.000002	-16.716494	2.838202	-5.416348	-1.719258	5.773700	1.821389	5.119273	-5.316859	-1.377134	-2.335052	1.787691	10.542227	7.004674	-1.667132	-21.171463	-1.569757	5.372963	3.484658	1.825616	-8.060031	4.916901	0.123939	3.701806	7.886912	-1.811718	1.958411	14.656452	2.229996	5.866784	-4.341633	6.085803	-2.824837	-4.489260	
9.416799	96.071770	-1.135061	15.151252	0.217341	11.264842	-21.087912	3.012429	-9.080659	-2.204968	-3.053288	-8.180348	0.387203	2.331628	7.767009	0.	0.	0.	-8.822755	-16.915825	-29.952627	-0.335665	50.216564	-6.221823	-6.065555	16.224949	2.904679	0.	0.	0.	0.000000	-0.000003	0.000002	-16.719090	2.823155	-5.420311	-1.718557	5.788795	1.825959	5.119273	-5.316859	-1.377134	-2.335052	1.787691	10.542227	7.012025	-1.677343	-21.183691	-1.569020	5.388069	3.489185	1.826098	-8.060689	4.913901	0.123322	3.702509	7.889983	-1.811718	1.958411	14.656452	2.224122	5.863156	-4.337702	6.088726	-2.812094	-4.471599	
9.418105	96.071974	-1.135099	15.151252	0.217341	11.264842	-21.087912	3.012429	-9.080659	-2.204968	-3.053288	-8.180348	0.377892	2.328488	7.773756	0.	0.	0.	-8.822895	-16.914999	-29.958914	-0.342631	50.215878	-6.212068	-6.065555	16.224949	2.904679	0.	0.	0.	0.000000	-0.000003	0.000002	-16.720640	2.809654	-5.435087	-1.698499	5.797041	1.835708	5.102721	-5.336031	-1.373317	-2.314707	1.808922	10.493732	6.991800	-1.662184	-21.142239	-1.569838	5.393093	3.498897	1.829129	-8.055245	4.906015	0.120586	3.705597	7.903519	-1.811718	1.958411	14.656452	2.215696	5.856616	-4.322869	6.095882	-2.807805	-4.455506	
9.419157	96.069871	-1.135582	15.160266	0.220047	11.261259	-21.097439	3.010321	-9.077665	-2.204968	-3.053288	-8.180348	0.365153	2.324187	7.782988	0.	0.	0.	-8.831241	-16.916426	-29.955393	-0.344338	50.216183	-6.221395	-6.067510	16.223642	2.915678	0.	0.	0.	-0.000001	-0.000002	0.000001	-16.721722	2.793424	-5.447569	-1.693839	5.810311	1.843951	5.091347	-5.358836	-1.366669	-2.310516	1.813675	10.494034	6.986537	-1.642318	-21.144773	-1.580551	5.394325	3.506455	1.833033	-8.046679	4.897625	0.117247	3.709365	7.920035	-1.811718	1.958411	14.656452	2.197031	5.849457	-4.307655	6.105108	-2.807935	-4.440334	
9.420675	96.068505	-1.135949	15.166647	0.221960	11.258723	-21.104183	3.008829	-9.075549	-2.204968	-3.053288	-8.180348	0.350658	2.319275	7.793495	0.	0.	0.	-8.837148	-16.917433	-29.952904	-0.346809	50.216625	-6.234911	-6.070341	16.221743	2.931609	0.	0.	0.	-0.000001	-0.000003	-0.000001	-16.725229	2.788651	-5.453381	-1.680314	5.813468	1.843655	5.075378	-5.365107	-1.359954	-2.305624	1.812519	10.489073	6.983040	-1.638014	-21.141640	-1.584569	5.390977	3.510183	1.835233	-8.042337	4.892318	0.115299	3.711558	7.929655	-1.813807	1.959198	14.661049	2.185312	5.831621	-4.299416	6.112970	-2.797969	-4.434425	
9.420977	96.066916	-1.136284	15.173204	0.223926	11.256124	-21.111111	3.007300	-9.073377	-2.204968	-3.053288	-8.180348	0.344690	2.317256	7.797823	0.	0.	0.	-8.843220	-16.918467	-29.950350	-0.347994	50.216839	-6.241490	-6.071724	16.220825	2.939357	0.	0.	0.	-0.000001	0.000000	0.000000	-16.730881	2.787838	-5.467857	-1.673692	5.812454	1.855984	5.067382	-5.371514	-1.356259	-2.300711	1.811838	10.483443	6.980435	-1.639459	-21.138342	-1.587077	5.383417	3.522530	1.837594	-8.037992	4.886306	0.113179	3.713942	7.940120	-1.822280	1.971650	14.673854	2.178624	5.820675	-4.282396	6.118385	-2.799059	-4.428133	
9.419658	96.060269	-1.137548	15.199068	0.231674	11.245873	-21.138439	3.001258	-9.064818	-2.204968	-3.053288	-8.180348	0.339161	2.315381	7.801831	0.	0.	0.	-8.867166	-16.922554	-29.940275	-0.351433	50.217464	-6.260273	-6.075656	16.218180	2.961501	0.	0.	0.	0.000000	-0.000002	0.000001	-16.752893	2.782732	-5.485639	-1.642546	5.811497	1.864450	5.032546	-5.385606	-1.341544	-2.280843	1.801355	10.461278	6.969945	-1.642170	-21.124378	-1.593630	5.355118	3.530824	1.847503	-8.020033	4.860648	0.108415	3.723495	7.966909	-1.833174	1.995131	14.691776	2.167077	5.783881	-4.256980	6.130572	-2.810918	-4.406442	
9.418664	96.057023	-1.138138	15.211411	0.235365	11.240971	-21.151480	2.998378	-9.060727	-2.204968	-3.053288	-8.180348	0.339161	2.315381	7.801831	0.	0.	0.	-8.878592	-16.924500	-29.935467	-0.351965	50.217552	-6.263231	-6.076280	16.217770	2.964985	0.	0.	0.	-0.000001	-0.000001	-0.000001	-16.750292	2.778054	-5.499595	-1.641291	5.811891	1.873314	5.014493	-5.384676	-1.334741	-2.278296	1.798383	10.458820	6.968711	-1.642037	-21.122826	-1.607506	5.342578	3.537873	1.849471	-8.011283	4.850213	0.108249	3.727721	7.970852	-1.840285	2.011931	14.704480	2.152809	5.758759	-4.241588	6.132618	-2.804623	-4.409004	
9.417626	96.053680	-1.138753	15.224246	0.239207	11.235880	-21.165039	2.995378	-9.056479	-2.204968	-3.053288	-8.180348	0.339161	2.315381	7.801831	0.	0.	0.	-8.890474	-16.926529	-29.930464	-0.351965	50.217552	-6.263231	-6.076280	16.217770	2.964985	0.	0.	0.	-0.000002	0.000000	0.000000	-16.747763	2.773160	-5.513134	-1.641526	5.812337	1.882411	4.997466	-5.383801	-1.328329	-2.278296	1.798383	10.458820	6.968711	-1.642037	-21.122826	-1.612502	5.333458	3.540960	1.842201	-8.004968	4.843866	0.111043	3.731352	7.962352	-1.850538	2.029665	14.728171	2.138866	5.734948	-4.226565	6.134455	-2.798576	-4.414834	
